<svg width="40" height="40" viewBox="0 0 40 40" fill="none" xmlns="http://www.w3.org/2000/svg">
<path d="M13.0554 32.474C11.1583 32.3283 9.35567 31.587 7.90497 30.3557C6.45427 29.1245 5.42967 27.4663 4.97747 25.6182C4.52527 23.77 4.6686 21.8262 5.38698 20.0642C6.10537 18.3023 7.36208 16.8125 8.97767 15.8073C9.32143 13.1269 10.6302 10.6635 12.6589 8.87835C14.6877 7.09315 17.2975 6.1084 19.9998 6.1084C22.7023 6.1084 25.312 7.09315 27.3408 8.87835C29.3696 10.6635 30.6783 13.1269 31.0221 15.8073C32.6376 16.8125 33.8945 18.3023 34.6128 20.0642C35.3311 21.8262 35.4745 23.77 35.0223 25.6182C34.5701 27.4663 33.5455 29.1245 32.0948 30.3557C30.6442 31.587 28.8415 32.3283 26.9443 32.474V32.5003H13.0554V32.474ZM21.3888 21.3892H25.5555L19.9998 14.4448L14.4443 21.3892H18.611V26.9448H21.3888V21.3892Z" fill="#21DDFF"/>
</svg>
